<?xml version="1.0" encoding="utf-8"?>
<!-- Generator: Adobe Illustrator 24.0.1, SVG Export Plug-In . SVG Version: 6.00 Build 0)  -->
<svg version="1.1" id="Слой_1" xmlns:xodm="http://www.corel.com/coreldraw/odm/2003"
	 xmlns="http://www.w3.org/2000/svg" xmlns:xlink="http://www.w3.org/1999/xlink" x="0px" y="0px" viewBox="0 0 186.3 170.1"
	 style="enable-background:new 0 0 186.3 170.1;" xml:space="preserve">
<style type="text/css">
	.st0{enable-background:new    ;}
</style>
<g>
	<g id="_2680191781984">
		<path d="M88.1,73.9c2.7-2.3,6-2.7,9.4-3.2c0.8-0.1,1.6-0.2,2.4-0.4c5.8-0.9,10.2-3,13.3-6.4c2.7-3,4.5-7.9,4.3-11.9
			c-0.1-2.3-0.8-4.3-2-5.8l8.7-11.3l-1.4-0.9c-0.5-0.3-0.9-0.6-1.4-0.9c-2.4-1.7-4.9-3.3-8.1-3.6c-1.2-0.1-2.4,0-3.5,0.3
			c-5.6,1.4-8.8,6.2-9.9,8.2l2.5,1.6c1-1.7,3.6-5.7,8.1-6.8c0.9-0.2,1.8-0.3,2.7-0.2c2.4,0.2,4.5,1.6,6.7,3.1l0,0l-7.4,9.7l-0.9,1.2
			l1.1,1c1.2,1.1,1.9,2.6,2,4.6c0.2,3.6-1.6,7.6-3.5,9.6c-2.7,2.9-6.5,4.6-11.7,5.5c-0.8,0.1-1.6,0.2-2.3,0.3c-2,0.3-4.1,0.5-6,1.2
			c-1.7,0.5-3.3,1.4-4.9,2.7c-3,2.6-5.2,6.4-6,10.4c-3.2,0-6.4,0-9.5,0h-1.5c0.7-2.1,1.7-4.1,2.8-5.9c1.8-2.8,4.1-5.2,6.7-7.2h-4.7
			c-1.7,1.6-3.2,3.4-4.5,5.5c-1.7,2.7-3,5.6-3.8,8.8l-0.5,2h5.4c3.5,0,7.1,0,10.7,0h1.3l0.2-1.3C83.4,79.9,85.3,76.4,88.1,73.9
			L88.1,73.9z"/>
		<path d="M108.6,56.8c0.9-3.1-0.5-6.5-3.3-8.3s-5.6-3.8-8.1-5.7l-28.8-22L68,24.4l27.4,20.9c2.6,2,5.4,4,8.3,5.9c1.6,1,2.5,3,2,4.7
			c-0.4,1.5-2,2.7-3.8,2.7l-39,1.7l1.3,3l37.8-1.6C105.1,61.6,107.8,59.6,108.6,56.8z"/>
		<path d="M59.9,55.2L98,55c0.8,0,1.4-0.7,1.4-1.5c0-0.6-0.3-1.1-0.8-1.4L62.9,27.9v3.7L89.1,49l-32-10l0.3,3.3l31,9.7l-29.6,0.1
			C58.7,52.1,59.9,55.2,59.9,55.2z"/>
		<path d="M113.4,37c0-0.9-0.7-1.7-1.6-1.7s-1.5,0.7-1.5,1.7c0,0.9,0.7,1.6,1.5,1.6C112.7,38.7,113.4,37.9,113.4,37z"/>
		<path d="M94.7,23.9c4.2,0,8.3,1,12,2.7c0.7-0.3,1.4-0.5,2.2-0.7c0.7-0.2,1.5-0.3,2.3-0.4c-4.8-3-10.4-4.7-16.4-4.7
			c-5.3,0-10.4,1.4-14.8,3.8l2.7,2.1C86.3,24.8,90.4,23.9,94.7,23.9z"/>
		<path d="M124.5,41.2l-2.1,2.7c1.4,3.6,2.1,7.5,2.1,11.7c0,17.5-13.4,31.7-29.8,31.7c-2.8,0-5.6-0.4-8.1-1.2l-0.4,3.1
			c2.7,0.8,5.6,1.2,8.5,1.2c18,0,32.7-15.6,32.7-34.8C127.4,50.5,126.3,45.6,124.5,41.2z"/>
	</g>
	<g>
		<g class="st0">
			<path d="M37.3,123.7v-16.5h7.3c1.5,0,2.6,0.1,3.3,0.4c0.8,0.3,1.4,0.8,1.8,1.6c0.5,0.7,0.7,1.6,0.7,2.5c0,1.2-0.4,2.2-1.1,3
				c-0.8,0.8-1.9,1.3-3.5,1.5c0.6,0.3,1,0.6,1.3,0.8c0.6,0.6,1.2,1.3,1.8,2.2l2.9,4.5h-2.7l-2.2-3.4c-0.6-1-1.2-1.7-1.6-2.3
				c-0.4-0.5-0.8-0.9-1.1-1.1s-0.7-0.4-1-0.4c-0.2-0.1-0.7-0.1-1.2-0.1h-2.5v7.3H37.3z M39.5,114.5h4.7c1,0,1.8-0.1,2.3-0.3
				c0.6-0.2,1-0.5,1.3-1s0.4-0.9,0.4-1.5c0-0.8-0.3-1.4-0.8-1.9c-0.6-0.5-1.5-0.8-2.7-0.8h-5.2V114.5z"/>
			<path d="M61.8,119.8l2.1,0.3c-0.3,1.2-0.9,2.2-1.8,2.8c-0.9,0.7-2,1-3.4,1c-1.7,0-3.1-0.5-4.1-1.6s-1.5-2.6-1.5-4.5
				c0-2,0.5-3.6,1.5-4.7s2.4-1.7,4-1.7s2.9,0.5,3.9,1.6s1.5,2.6,1.5,4.6c0,0.1,0,0.3,0,0.5h-9c0.1,1.3,0.4,2.3,1.1,3
				c0.7,0.7,1.5,1,2.5,1c0.7,0,1.4-0.2,1.9-0.6S61.5,120.7,61.8,119.8z M55.1,116.6h6.7c-0.1-1-0.3-1.8-0.8-2.3
				c-0.6-0.8-1.5-1.2-2.5-1.2c-0.9,0-1.7,0.3-2.3,0.9S55.2,115.5,55.1,116.6z"/>
			<path d="M65.6,120.1l2-0.3c0.1,0.8,0.4,1.4,0.9,1.8s1.2,0.6,2.2,0.6c0.9,0,1.6-0.2,2.1-0.6c0.4-0.4,0.7-0.8,0.7-1.3
				s-0.2-0.8-0.6-1.1c-0.3-0.2-1-0.4-2.1-0.7c-1.5-0.4-2.5-0.7-3.1-1s-1-0.7-1.3-1.1c-0.3-0.5-0.4-1-0.4-1.6c0-0.5,0.1-1,0.4-1.5
				c0.2-0.5,0.6-0.8,1-1.1c0.3-0.2,0.7-0.4,1.3-0.6c0.5-0.2,1.1-0.2,1.7-0.2c0.9,0,1.8,0.1,2.5,0.4s1.2,0.6,1.6,1.1s0.6,1.1,0.7,1.8
				l-2,0.3c-0.1-0.6-0.4-1.1-0.8-1.4s-1-0.5-1.8-0.5c-0.9,0-1.6,0.2-2,0.5s-0.6,0.7-0.6,1.1c0,0.3,0.1,0.5,0.2,0.7
				c0.2,0.2,0.4,0.4,0.8,0.5c0.2,0.1,0.8,0.2,1.8,0.5c1.4,0.4,2.4,0.7,3,0.9c0.6,0.2,1,0.6,1.3,1.1s0.5,1,0.5,1.7s-0.2,1.3-0.6,1.9
				s-1,1.1-1.7,1.4s-1.6,0.5-2.5,0.5c-1.5,0-2.7-0.3-3.5-1C66.3,122.3,65.8,121.4,65.6,120.1z"/>
			<path d="M77.9,128.2v-16.5h1.8v1.5c0.4-0.6,0.9-1.1,1.5-1.4c0.5-0.3,1.2-0.5,2-0.5c1,0,1.9,0.3,2.7,0.8s1.4,1.3,1.8,2.2
				c0.4,1,0.6,2,0.6,3.1c0,1.2-0.2,2.3-0.7,3.3c-0.4,1-1.1,1.7-1.9,2.2s-1.7,0.8-2.6,0.8c-0.7,0-1.3-0.1-1.8-0.4s-1-0.6-1.3-1.1v5.8
				h-2.1V128.2z M79.7,117.8c0,1.5,0.3,2.7,0.9,3.4c0.6,0.7,1.4,1.1,2.3,1.1s1.7-0.4,2.3-1.1s1-1.9,1-3.5c0-1.5-0.3-2.7-0.9-3.4
				c-0.6-0.8-1.4-1.1-2.2-1.1c-0.9,0-1.6,0.4-2.3,1.2S79.7,116.2,79.7,117.8z"/>
			<path d="M98.5,123.7v-1.8c-0.9,1.3-2.2,2-3.8,2c-0.7,0-1.4-0.1-2-0.4s-1.1-0.6-1.4-1s-0.5-0.9-0.6-1.5c-0.1-0.4-0.1-1-0.1-1.9
				v-7.4h2v6.6c0,1.1,0,1.8,0.1,2.1c0.1,0.5,0.4,0.9,0.8,1.3c0.4,0.3,0.9,0.5,1.5,0.5s1.2-0.2,1.7-0.5s0.9-0.7,1.1-1.3
				s0.3-1.3,0.3-2.3v-6.4h2v11.9h-1.6V123.7z"/>
			<path d="M105.3,123.7h-1.9v-16.5h2v5.9c0.9-1.1,1.9-1.6,3.3-1.6c0.7,0,1.4,0.1,2.1,0.4s1.2,0.7,1.6,1.2s0.8,1.2,1,1.9
				c0.2,0.8,0.4,1.6,0.4,2.4c0,2-0.5,3.6-1.5,4.7s-2.2,1.7-3.6,1.7s-2.5-0.6-3.3-1.8L105.3,123.7L105.3,123.7z M105.3,117.6
				c0,1.4,0.2,2.5,0.6,3.1c0.6,1,1.5,1.6,2.6,1.6c0.9,0,1.6-0.4,2.3-1.2c0.6-0.8,1-1.9,1-3.4c0-1.6-0.3-2.7-0.9-3.4
				c-0.6-0.7-1.4-1.1-2.2-1.1c-0.9,0-1.6,0.4-2.3,1.2C105.6,115,105.3,116.2,105.3,117.6z"/>
			<path d="M116.2,123.7v-16.5h2v16.5H116.2z"/>
			<path d="M121.4,109.5v-2.3h2v2.3H121.4z M121.4,123.7v-11.9h2v11.9H121.4z"/>
			<path d="M126.5,123.7v-16.5h2v9.4l4.8-4.9h2.6l-4.6,4.4l5,7.5h-2.5l-3.9-6.1l-1.4,1.4v4.7L126.5,123.7L126.5,123.7z"/>
			<path d="M145.8,122.2c-0.7,0.6-1.5,1.1-2.2,1.3s-1.4,0.4-2.2,0.4c-1.3,0-2.3-0.3-3-1c-0.7-0.6-1.1-1.5-1.1-2.5
				c0-0.6,0.1-1.1,0.4-1.6c0.3-0.5,0.6-0.9,1-1.2s0.9-0.5,1.5-0.7c0.4-0.1,1-0.2,1.8-0.3c1.6-0.2,2.8-0.4,3.6-0.7c0-0.3,0-0.5,0-0.5
				c0-0.8-0.2-1.4-0.6-1.7c-0.5-0.5-1.3-0.7-2.3-0.7s-1.7,0.2-2.1,0.5c-0.5,0.3-0.8,0.9-1,1.8l-2-0.3c0.2-0.8,0.5-1.5,0.9-2
				s1-0.9,1.8-1.2c0.8-0.3,1.7-0.4,2.7-0.4s1.8,0.1,2.5,0.4c0.6,0.2,1.1,0.5,1.4,0.9s0.5,0.8,0.6,1.4c0.1,0.3,0.1,1,0.1,1.9v2.7
				c0,1.9,0,3.1,0.1,3.6s0.3,1,0.5,1.4h-2.1C145.9,123.2,145.8,122.7,145.8,122.2z M145.6,117.7c-0.7,0.3-1.8,0.6-3.3,0.8
				c-0.8,0.1-1.4,0.3-1.8,0.4s-0.6,0.4-0.8,0.7c-0.2,0.3-0.3,0.6-0.3,1c0,0.5,0.2,1,0.6,1.3c0.4,0.4,1,0.5,1.8,0.5s1.5-0.2,2.1-0.5
				s1.1-0.8,1.3-1.4c0.2-0.5,0.3-1.1,0.3-2L145.6,117.7L145.6,117.7z"/>
		</g>
		<g class="st0">
			<path d="M28.5,147.5l0.3,1.8c-0.6,0.1-1.1,0.2-1.5,0.2c-0.7,0-1.3-0.1-1.7-0.4c-0.4-0.2-0.7-0.5-0.9-0.9
				c-0.2-0.4-0.2-1.2-0.2-2.4V139H23v-1.6h1.5v-3l2-1.2v4.2h2v1.6h-2v7c0,0.6,0,0.9,0.1,1.1c0.1,0.2,0.2,0.3,0.3,0.4
				c0.2,0.1,0.4,0.1,0.7,0.1C27.8,147.6,28.1,147.6,28.5,147.5z"/>
			<path d="M38.2,147.9c-0.7,0.6-1.5,1.1-2.2,1.3c-0.7,0.3-1.4,0.4-2.2,0.4c-1.3,0-2.3-0.3-3-1c-0.7-0.6-1.1-1.5-1.1-2.5
				c0-0.6,0.1-1.1,0.4-1.6s0.6-0.9,1-1.2s0.9-0.5,1.5-0.7c0.4-0.1,1-0.2,1.8-0.3c1.6-0.2,2.8-0.4,3.6-0.7c0-0.3,0-0.5,0-0.5
				c0-0.8-0.2-1.4-0.6-1.7c-0.5-0.5-1.3-0.7-2.3-0.7s-1.7,0.2-2.1,0.5s-0.8,0.9-1,1.8l-2-0.3c0.2-0.8,0.5-1.5,0.9-2s1-0.9,1.8-1.2
				c0.8-0.3,1.7-0.4,2.7-0.4s1.8,0.1,2.5,0.4c0.6,0.2,1.1,0.5,1.4,0.9c0.3,0.4,0.5,0.8,0.6,1.4c0.1,0.3,0.1,1,0.1,1.9v2.7
				c0,1.9,0,3.1,0.1,3.6s0.3,1,0.5,1.4h-2.1C38.4,148.9,38.3,148.4,38.2,147.9z M38.1,143.4c-0.7,0.3-1.8,0.6-3.3,0.8
				c-0.8,0.1-1.4,0.3-1.8,0.4c-0.3,0.2-0.6,0.4-0.8,0.7s-0.3,0.6-0.3,1c0,0.5,0.2,1,0.6,1.3c0.4,0.4,1,0.5,1.8,0.5s1.5-0.2,2.1-0.5
				s1.1-0.8,1.3-1.4c0.2-0.5,0.3-1.1,0.3-2v-0.8H38.1z"/>
			<path d="M43.1,135.1v-2.3h2.2v1.9c0,1-0.1,1.7-0.3,2.2c-0.3,0.6-0.8,1.1-1.5,1.4l-0.5-0.8c0.4-0.2,0.7-0.4,0.9-0.8
				c0.2-0.4,0.3-0.8,0.3-1.5L43.1,135.1L43.1,135.1z"/>
			<path d="M48.3,149.3v-16.5h2v16.5H48.3z"/>
			<path d="M53.5,135.2v-2.3h2v2.3H53.5z M53.5,149.3v-11.9h2v11.9H53.5z"/>
			<path d="M58.6,149.3v-11.9h1.8v1.7c0.4-0.6,0.9-1.1,1.5-1.4c0.6-0.4,1.3-0.5,2.1-0.5c0.9,0,1.6,0.2,2.2,0.5
				c0.6,0.4,1,0.9,1.2,1.5c0.9-1.4,2.2-2.1,3.7-2.1c1.2,0,2.1,0.3,2.7,1s1,1.7,1,3v8.2h-2v-7.5c0-0.8-0.1-1.4-0.2-1.7
				s-0.4-0.6-0.7-0.9c-0.3-0.2-0.7-0.3-1.2-0.3c-0.8,0-1.5,0.3-2.1,0.8c-0.6,0.6-0.8,1.5-0.8,2.7v6.9h-2v-7.7c0-0.9-0.2-1.6-0.5-2
				s-0.9-0.7-1.6-0.7c-0.6,0-1.1,0.1-1.6,0.4c-0.5,0.3-0.8,0.7-1,1.3s-0.3,1.4-0.3,2.5v6.2H58.6z"/>
			<path d="M84.1,149.3v-11.9h1.8v1.7c0.4-0.6,0.9-1.1,1.5-1.4c0.6-0.4,1.3-0.5,2.1-0.5c0.9,0,1.6,0.2,2.2,0.5
				c0.6,0.4,1,0.9,1.2,1.5c0.9-1.4,2.2-2.1,3.7-2.1c1.2,0,2.1,0.3,2.7,1s1,1.7,1,3v8.2h-2v-7.5c0-0.8-0.1-1.4-0.2-1.7
				s-0.4-0.6-0.7-0.9c-0.3-0.2-0.7-0.3-1.2-0.3c-0.8,0-1.5,0.3-2.1,0.8c-0.6,0.6-0.8,1.5-0.8,2.7v6.9h-2v-7.7c0-0.9-0.2-1.6-0.5-2
				s-0.9-0.7-1.6-0.7c-0.6,0-1.1,0.1-1.6,0.4c-0.5,0.3-0.8,0.7-1,1.3s-0.3,1.4-0.3,2.5v6.2H84.1z"/>
			<path d="M111,147.9c-0.7,0.6-1.5,1.1-2.2,1.3c-0.7,0.3-1.4,0.4-2.2,0.4c-1.3,0-2.3-0.3-3-1c-0.7-0.6-1.1-1.5-1.1-2.5
				c0-0.6,0.1-1.1,0.4-1.6s0.6-0.9,1-1.2s0.9-0.5,1.5-0.7c0.4-0.1,1-0.2,1.8-0.3c1.6-0.2,2.8-0.4,3.6-0.7c0-0.3,0-0.5,0-0.5
				c0-0.8-0.2-1.4-0.6-1.7c-0.5-0.5-1.3-0.7-2.3-0.7s-1.7,0.2-2.1,0.5s-0.8,0.9-1,1.8l-2-0.3c0.2-0.8,0.5-1.5,0.9-2s1-0.9,1.8-1.2
				s1.7-0.4,2.7-0.4s1.8,0.1,2.5,0.4c0.6,0.2,1.1,0.5,1.4,0.9s0.5,0.8,0.6,1.4c0.1,0.3,0.1,1,0.1,1.9v2.7c0,1.9,0,3.1,0.1,3.6
				s0.3,1,0.5,1.4h-2.1C111.2,148.9,111.1,148.4,111,147.9z M110.9,143.4c-0.7,0.3-1.8,0.6-3.3,0.8c-0.8,0.1-1.4,0.3-1.8,0.4
				c-0.3,0.2-0.6,0.4-0.8,0.7c-0.2,0.3-0.3,0.6-0.3,1c0,0.5,0.2,1,0.6,1.3c0.4,0.4,1,0.5,1.8,0.5s1.5-0.2,2.1-0.5s1.1-0.8,1.3-1.4
				c0.2-0.5,0.3-1.1,0.3-2v-0.8H110.9z"/>
			<path d="M116,149.3v-11.9h1.8v1.8c0.5-0.8,0.9-1.4,1.3-1.7s0.8-0.4,1.3-0.4c0.7,0,1.4,0.2,2.1,0.7l-0.7,1.9
				c-0.5-0.3-1-0.4-1.5-0.4c-0.4,0-0.8,0.1-1.2,0.4c-0.4,0.3-0.6,0.6-0.8,1.1c-0.2,0.7-0.3,1.5-0.3,2.4v6.2h-2
				C116,149.4,116,149.3,116,149.3z"/>
			<path d="M123.7,149.3v-16.5h2v9.4l4.8-4.9h2.6l-4.6,4.4l5,7.5H131l-3.9-6.1l-1.4,1.4v4.7h-2V149.3z"/>
			<path d="M143,147.9c-0.7,0.6-1.5,1.1-2.2,1.3c-0.7,0.3-1.4,0.4-2.2,0.4c-1.3,0-2.3-0.3-3-1c-0.7-0.6-1.1-1.5-1.1-2.5
				c0-0.6,0.1-1.1,0.4-1.6c0.3-0.5,0.6-0.9,1-1.2s0.9-0.5,1.5-0.7c0.4-0.1,1-0.2,1.8-0.3c1.6-0.2,2.8-0.4,3.6-0.7c0-0.3,0-0.5,0-0.5
				c0-0.8-0.2-1.4-0.6-1.7c-0.5-0.5-1.3-0.7-2.3-0.7s-1.7,0.2-2.1,0.5c-0.5,0.3-0.8,0.9-1,1.8l-2-0.3c0.2-0.8,0.5-1.5,0.9-2
				s1-0.9,1.8-1.2s1.7-0.4,2.7-0.4s1.8,0.1,2.5,0.4c0.6,0.2,1.1,0.5,1.4,0.9c0.3,0.4,0.5,0.8,0.6,1.4c0.1,0.3,0.1,1,0.1,1.9v2.7
				c0,1.9,0,3.1,0.1,3.6s0.3,1,0.5,1.4h-2.1C143.2,148.9,143.1,148.4,143,147.9z M142.8,143.4c-0.7,0.3-1.8,0.6-3.3,0.8
				c-0.8,0.1-1.4,0.3-1.8,0.4c-0.3,0.2-0.6,0.4-0.8,0.7s-0.3,0.6-0.3,1c0,0.5,0.2,1,0.6,1.3c0.4,0.4,1,0.5,1.8,0.5s1.5-0.2,2.1-0.5
				s1.1-0.8,1.3-1.4c0.2-0.5,0.3-1.1,0.3-2L142.8,143.4L142.8,143.4z"/>
			<path d="M146.9,149.3v-1.6l7.6-8.7c-0.9,0-1.6,0.1-2.3,0.1h-4.9v-1.6h9.7v1.3l-6.5,7.6l-1.2,1.4c0.9-0.1,1.8-0.1,2.5-0.1h5.5v1.7
				L146.9,149.3L146.9,149.3z"/>
			<path d="M159.5,135.2v-2.3h2v2.3H159.5z M159.5,149.3v-11.9h2v11.9H159.5z"/>
		</g>
	</g>
</g>
</svg>
