<?xml version="1.0" encoding="utf-8"?>
<!-- Generator: Adobe Illustrator 24.0.1, SVG Export Plug-In . SVG Version: 6.00 Build 0)  -->
<svg version="1.1" id="Слой_1" xmlns:xodm="http://www.corel.com/coreldraw/odm/2003"
	 xmlns="http://www.w3.org/2000/svg" xmlns:xlink="http://www.w3.org/1999/xlink" x="0px" y="0px" viewBox="0 0 283.5 170.1"
	 style="enable-background:new 0 0 283.5 170.1;" xml:space="preserve">
<style type="text/css">
	.st0{enable-background:new    ;}
</style>
<g id="_2680183557248">
	<path d="M141.3,18.6c-21.4,0-38.8,17.4-38.8,38.8s17.4,38.8,38.8,38.8s38.8-17.4,38.8-38.8S162.7,18.6,141.3,18.6z M141.3,97.9
		c-22.4,0-40.5-18.2-40.5-40.5s18.2-40.5,40.5-40.5c22.4,0,40.5,18.2,40.5,40.5S163.7,97.9,141.3,97.9z"/>
	<path d="M116.7,45.2v24.3c-1.9-3.8-2.8-7.9-2.8-12.2C113.9,53.1,114.9,49,116.7,45.2z M142.8,30c0.2,0,0.3,0,0.5,0
		c0.3,0,0.7,0,1,0.1c0.2,0,0.4,0.1,0.6,0.1c0.3,0,0.6,0.1,0.9,0.1c0.2,0,0.4,0.1,0.6,0.1c0.3,0.1,0.6,0.1,0.8,0.2
		c0.2,0,0.4,0.1,0.6,0.2c0.3,0.1,0.5,0.1,0.8,0.2c0.2,0.1,0.4,0.1,0.7,0.2c0.3,0.1,0.5,0.2,0.8,0.2c0.2,0.1,0.4,0.2,0.7,0.2
		c0.2,0.1,0.5,0.2,0.7,0.3s0.4,0.2,0.7,0.3c0.2,0.1,0.4,0.2,0.6,0.3c1.7,1.5,3,3.4,3.9,5.5h-1.1c-0.3,0-0.7,0-1,0
		c-0.1,0-0.2,0-0.3,0c-0.2,0-0.5,0-0.7,0c-0.1,0-0.3,0-0.4,0c-0.2,0-0.4,0-0.6,0.1c-0.1,0-0.3,0-0.4,0.1c-0.2,0-0.4,0.1-0.6,0.1
		c-0.1,0-0.3,0.1-0.4,0.1c-0.2,0-0.4,0.1-0.6,0.1c-0.1,0-0.3,0.1-0.4,0.1c-0.2,0-0.4,0.1-0.5,0.1s-0.3,0.1-0.4,0.1
		c-0.2,0.1-0.4,0.1-0.5,0.2c-0.1,0-0.3,0.1-0.4,0.2c-0.2,0.1-0.3,0.1-0.5,0.2c-0.1,0.1-0.3,0.1-0.4,0.2c-0.2,0.1-0.3,0.1-0.5,0.2
		c-0.1,0.1-0.3,0.1-0.4,0.2c-0.2,0.1-0.3,0.2-0.5,0.3c-0.1,0.1-0.3,0.1-0.4,0.2c-0.2,0.1-0.3,0.2-0.5,0.3c-0.1,0.1-0.3,0.1-0.4,0.2
		c-0.2,0.1-0.3,0.2-0.5,0.3c-0.1,0.1-0.2,0.2-0.4,0.2c-0.2,0.1-0.3,0.2-0.5,0.3c-0.1,0.1-0.2,0.2-0.3,0.3c-0.2,0.1-0.3,0.2-0.5,0.4
		c-0.1,0.1-0.2,0.2-0.3,0.3c-0.2,0.1-0.3,0.3-0.5,0.4c-0.1,0.1-0.2,0.2-0.3,0.3c0,0-0.1,0-0.1,0.1c0,0,0,0-0.1-0.1s-0.2-0.2-0.3-0.3
		c-0.2-0.1-0.3-0.3-0.5-0.4c-0.1-0.1-0.2-0.2-0.3-0.3c-0.2-0.1-0.3-0.2-0.5-0.4c-0.1-0.1-0.2-0.2-0.3-0.2c-0.2-0.1-0.3-0.2-0.5-0.3
		c-0.1-0.1-0.2-0.2-0.3-0.2c-0.2-0.1-0.3-0.2-0.5-0.3c-0.1-0.1-0.2-0.1-0.3-0.2c-0.2-0.1-0.3-0.2-0.5-0.3c-0.1-0.1-0.2-0.1-0.3-0.2
		c-0.2-0.1-0.4-0.2-0.6-0.3c-0.1,0-0.2-0.1-0.3-0.1c-0.3-0.1-0.6-0.3-0.9-0.4c-2.6-1.1-5.3-1.6-8.1-1.6H126c0.9-2.1,2.3-4,3.9-5.5
		c0.2-0.1,0.4-0.2,0.6-0.3s0.5-0.2,0.7-0.3s0.5-0.2,0.7-0.3s0.4-0.2,0.7-0.2c0.2-0.1,0.5-0.2,0.8-0.2c0.2-0.1,0.4-0.1,0.7-0.2
		c0.3-0.1,0.5-0.1,0.8-0.2c0.2-0.1,0.4-0.1,0.7-0.2c0.3-0.1,0.5-0.1,0.8-0.2c0.2,0,0.4-0.1,0.6-0.1c0.3,0,0.6-0.1,0.9-0.1
		c0.2,0,0.4-0.1,0.6-0.1c0.3,0,0.7-0.1,1-0.1c0.2,0,0.3,0,0.5,0c0.5,0,1,0,1.5,0C141.8,30,142.3,30,142.8,30L142.8,30z M165.9,69.6
		V48.3v-3.1c1.9,3.8,2.8,7.9,2.8,12.2S167.7,65.8,165.9,69.6z M154.8,81.3c-3.1,1.8-6.5,2.9-10,3.3
		C147.7,82.6,151.2,81.4,154.8,81.3z M137.9,84.6c-3.5-0.4-6.9-1.6-10-3.3C131.4,81.4,134.9,82.6,137.9,84.6z M162.3,39.8
		c0.6,0.8,1.2,1.6,1.8,2.4v6.1c0,5.1-2,10-5.6,13.6c0,0-0.1,0-0.1,0.1c-0.3,0.2-0.9,0.6-1.8,1.3l-0.4,0.3l-0.1,0.1
		c-1,0.8-2,1.6-2.9,2.4c-0.2,0.2-0.4,0.3-0.6,0.5c-0.1,0.1-0.1,0.1-0.2,0.2c-0.3,0.2-0.5,0.4-0.8,0.7c-0.2,0.2-0.4,0.4-0.6,0.6
		c-0.3,0.3-0.7,0.6-1,1l-0.4,0.4c-0.2,0.1-0.3,0.3-0.4,0.4c-0.3,0.3-0.6,0.6-0.9,0.9l-0.4,0.4c-1.7,1.9-3.2,3.7-4.3,5.6
		c-0.1,0.2-0.2,0.4-0.3,0.5c-0.2,0.3-0.4,0.6-0.5,0.9c-0.1,0.1-0.1,0.3-0.2,0.4c-0.1,0.1-0.2,0.3-0.2,0.4c-0.1,0.1-0.1,0.3-0.2,0.4
		c-0.1,0.2-0.2,0.3-0.2,0.5c-0.1,0.2-0.2,0.4-0.3,0.6c-0.1,0.3-0.2,0.7-0.4,1c0-0.3-0.1-0.5-0.1-0.8l0,0c-0.1-0.9-0.2-1.8-0.2-2.7
		l0,0c-0.6-17.4,12.5-26.4,12.6-26.4l-1-1.5c-0.1,0.1-13.7,9.4-13.4,27.4c-0.1-0.3-0.2-0.6-0.3-1l0,0c-1.4-5.3-2.1-10.2-2-14.7
		c0-0.1,0-0.3,0-0.4v-0.2c0.2-6.4,1.8-10.6,3.1-13c0.1-0.2,0.2-0.4,0.4-0.6c0.8-1.4,1.5-2.1,1.5-2.1l0,0c3.6-3.6,8.5-5.7,13.7-5.7
		h2.5L162.3,39.8L162.3,39.8z M158.6,38c-0.4-1-0.9-2-1.5-3c1.3,0.9,2.4,1.9,3.5,3H158.6z M121.9,38c1.1-1.1,2.3-2.1,3.5-3
		c-0.6,0.9-1.1,1.9-1.5,3H121.9z M124.2,78.8c-0.2-0.2-0.4-0.3-0.6-0.5c-0.1-0.1-0.2-0.2-0.4-0.3c-0.2-0.2-0.4-0.4-0.6-0.6
		c-0.1-0.1-0.2-0.2-0.3-0.3c-0.3-0.3-0.6-0.5-0.8-0.8l0,0c-0.3-0.3-0.6-0.6-0.8-0.9c-0.1-0.1-0.1-0.2-0.2-0.3
		c-0.2-0.2-0.4-0.4-0.6-0.7c-0.1-0.1-0.2-0.2-0.3-0.4c-0.2-0.2-0.3-0.4-0.5-0.6c-0.1-0.1-0.2-0.3-0.3-0.4c-0.1-0.2-0.2-0.3-0.3-0.5
		V42.2c0.3-0.4,0.6-0.8,0.9-1.2c0-0.1,0.1-0.1,0.1-0.2c0.2-0.3,0.5-0.6,0.8-0.9h4.3h2.5c2.6,0,5,0.5,7.4,1.5c0.5,0.2,1,0.4,1.4,0.7
		c0.1,0,0.1,0.1,0.2,0.1c0.4,0.2,0.9,0.5,1.3,0.7c0.1,0,0.1,0.1,0.2,0.1c0.4,0.3,0.8,0.5,1.2,0.8c0.1,0.1,0.1,0.1,0.2,0.2
		c0.4,0.3,0.8,0.6,1.2,1l0,0c0,0,0,0,0,0.1c-0.1,0.1-0.1,0.2-0.2,0.2c-0.1,0.1-0.1,0.1-0.2,0.2c-0.1,0.1-0.1,0.2-0.2,0.3
		c-0.1,0.1-0.1,0.2-0.2,0.2c-0.1,0.1-0.2,0.3-0.3,0.4c0,0.1-0.1,0.1-0.1,0.2c-0.1,0.2-0.3,0.5-0.4,0.8c-1.4,2.6-3.1,7.1-3.3,13.8
		v0.2c0,0.1,0,0.3,0,0.4c-0.1,4.6,0.6,9.7,2.1,15.2c0.6,2.1,1.2,4.2,2,6.4c-3.6-2.5-7.8-3.9-12.2-3.9h-1.9c-0.2-0.1-0.3-0.2-0.5-0.3
		C124.5,79,124.3,78.9,124.2,78.8L124.2,78.8z M163.8,73.1c-0.1,0.1-0.2,0.3-0.3,0.4c-0.1,0.2-0.3,0.4-0.4,0.6
		c-0.1,0.1-0.2,0.3-0.3,0.4c-0.2,0.2-0.3,0.4-0.5,0.6c-0.1,0.1-0.2,0.2-0.3,0.3c-0.3,0.3-0.5,0.6-0.8,0.9l-0.1,0.1
		c-0.2,0.2-0.5,0.5-0.7,0.7c-0.1,0.1-0.2,0.2-0.3,0.3c-0.2,0.2-0.4,0.4-0.6,0.5c-0.1,0.1-0.3,0.2-0.4,0.3c-0.2,0.2-0.4,0.3-0.6,0.5
		c-0.1,0.1-0.3,0.2-0.4,0.3c-0.1,0.1-0.3,0.2-0.4,0.3h-1.9c-4.8,0-9.5,1.6-13.2,4.6c0-0.1,0-0.2,0.1-0.3c0-0.2,0.1-0.4,0.1-0.6
		c0.1-0.3,0.2-0.7,0.3-1c0.1-0.4,0.3-0.7,0.4-1.1c0.1-0.2,0.1-0.3,0.2-0.5l0,0c0.1-0.1,0.1-0.3,0.2-0.4c0-0.1,0.1-0.2,0.1-0.3
		c0,0,0,0,0-0.1c0.3-0.5,0.6-1.1,0.9-1.7c0.1-0.2,0.2-0.3,0.3-0.5c1.1-1.7,2.5-3.5,4.1-5.3l0.4-0.4c0.3-0.3,0.5-0.6,0.8-0.9
		c0.1-0.1,0.3-0.3,0.4-0.4l0.4-0.4c0.5-0.5,1.1-1,1.6-1.5c0.3-0.3,0.6-0.6,1-0.8c0.2-0.2,0.4-0.3,0.6-0.5c0.5-0.5,1.1-0.9,1.7-1.4
		c0.4-0.3,0.8-0.6,1.1-0.9c0.1-0.1,0.2-0.1,0.3-0.2l0.2-0.2c1.1-0.8,1.8-1.3,1.9-1.3l0.1-0.1c0.2-0.2,0.5-0.5,0.7-0.7
		c0.1-0.1,0.1-0.2,0.2-0.2c0.2-0.2,0.3-0.4,0.5-0.5c0.1-0.1,0.2-0.2,0.2-0.3c0.1-0.2,0.3-0.3,0.4-0.5c0.1-0.1,0.2-0.2,0.2-0.3
		c0.1-0.2,0.2-0.3,0.3-0.5c0.1-0.1,0.2-0.2,0.2-0.4c0.1-0.2,0.2-0.3,0.3-0.5c0.1-0.1,0.1-0.2,0.2-0.4c0.1-0.2,0.2-0.3,0.3-0.5
		c0.1-0.1,0.1-0.3,0.2-0.4c0.1-0.2,0.2-0.3,0.3-0.5c0.1-0.1,0.1-0.3,0.2-0.4c0-0.1,0.1-0.2,0.1-0.3v15.9
		C164,72.8,163.9,72.9,163.8,73.1L163.8,73.1z M165.7,73.4c3.1-4.7,4.8-10.3,4.8-16c0-1.1-0.1-2.1-0.2-3.2c-0.4-4-1.7-7.9-3.7-11.3
		c-0.3-0.5-0.6-1-0.9-1.5c-0.3-0.4-0.5-0.8-0.8-1.2c-0.1-0.1-0.2-0.3-0.3-0.4c-0.4-0.5-0.8-1-1.2-1.5c-2.7-3.1-6-5.6-9.7-7.4
		c-3.9-1.8-8.1-2.8-12.4-2.8c-0.5,0-1.1,0-1.6,0c-0.6,0-1.2,0.1-1.8,0.2c-3.1,0.4-6.1,1.2-9,2.6l0,0c-3.7,1.7-7,4.3-9.7,7.4
		c-0.8,1-1.6,2-2.3,3.1l0,0l0,0l0,0c-3.1,4.7-4.8,10.3-4.8,16s1.6,11.2,4.8,16c0.9,1.4,1.9,2.7,3.1,3.9c0.1,0.1,0.2,0.2,0.3,0.3
		c1.2,1.3,2.6,2.5,4,3.5l0,0c4.8,3.5,10.5,5.4,16.4,5.5c0.1,0,0.2,0,0.3,0c0,0,0,0,0.1,0l0,0c0.1,0,0.1,0,0.1,0l0,0h0.1
		c0.2,0,0.4,0,0.6,0l0,0l0,0l0,0c5.9-0.1,11.6-2,16.4-5.5c0.5-0.4,1-0.8,1.5-1.2C162.1,78,164.1,75.8,165.7,73.4L165.7,73.4
		L165.7,73.4L165.7,73.4L165.7,73.4z"/>
	<polygon points="108.6,65.2 106.6,67.4 106.3,66 107.5,64.7 105.8,63.9 105.5,62.5 108.3,63.7 110.4,61.5 110.7,62.9 109.4,64.2 
		111.1,65 111.4,66.4 	"/>
	<path d="M108.2,56.3l-1.7,0.6l1.7,0.6C108.2,57.5,108.2,56.3,108.2,56.3z M105.2,57.5v-1.2l5-1.9v1.3l-1,0.4v1.8l1,0.4v1.3
		L105.2,57.5z"/>
	<polygon points="105.8,51.1 106,49.8 109.8,50.7 110.3,48.6 111.3,48.8 110.6,52.1 	"/>
	<path d="M112.1,43.5c0-0.2-0.1-0.5-0.2-0.7s-0.3-0.4-0.6-0.5c-0.3-0.1-0.5-0.2-0.7-0.1c-0.2,0-0.5,0.1-0.6,0.2
		c-0.2,0.1-0.3,0.3-0.4,0.6c-0.1,0.2-0.1,0.5-0.1,0.7s0.1,0.5,0.2,0.6c0.1,0.2,0.3,0.4,0.6,0.5c0.3,0.1,0.5,0.2,0.8,0.1
		c0.2,0,0.5-0.1,0.6-0.3c0.2-0.1,0.3-0.3,0.4-0.6C112,44,112.1,43.8,112.1,43.5z M112.1,45.8c-0.4,0.3-0.8,0.5-1.2,0.5
		c-0.4,0.1-0.9,0-1.3-0.2c-0.5-0.2-0.8-0.5-1.1-0.9s-0.4-0.8-0.4-1.2c0-0.5,0.1-0.9,0.3-1.4c0.2-0.5,0.5-0.8,0.8-1.1
		s0.8-0.4,1.2-0.5s0.9,0,1.4,0.2c0.3,0.1,0.5,0.3,0.7,0.5s0.3,0.5,0.4,0.7l0.3-0.8l0.9,0.4l-1.1,2.4
		C112.7,45.1,112.5,45.5,112.1,45.8z"/>
	<polygon points="115.8,33.4 114.8,34.4 114.1,33.7 116.9,30.8 117.7,31.5 116.7,32.5 119.5,35.2 118.6,36.1 	"/>
	<path d="M122.8,30l-1.5-1l0.5,1.7L122.8,30z M120.1,28.3l1-0.7l4.5,2.9l-1,0.7l-0.9-0.6l-1.5,1.1l0.3,1.1l-1.1,0.7L120.1,28.3
		L120.1,28.3z"/>
	<polygon points="122.4,26.5 123.5,25.8 124.5,26.7 123.6,27.2 	"/>
	<polygon points="125.2,25.1 126.3,24.6 127.9,28.1 129.9,27.3 130.3,28.2 127.2,29.6 	"/>
	<polygon points="131.1,22.8 132.3,22.5 133.6,27.2 132.4,27.6 	"/>
	<polygon points="135.5,21.7 136.7,21.6 138.4,24.5 139.6,21.4 140.8,21.3 141.2,26.2 140.1,26.3 139.8,23.8 138.9,26.4 138.3,26.4 
		136.9,24.1 137.1,26.5 136,26.6 	"/>
	<polygon points="144.1,21.4 145.4,21.6 144.9,26.5 143.7,26.4 	"/>
	<polygon points="153.3,23.3 154.5,23.8 154.3,27.3 156.8,24.8 158,25.4 154.3,29.1 153.1,28.6 	"/>
	<path d="M160.8,30.7l0.5-1.7l-1.5,1L160.8,30.7z M161.5,27.5l1,0.7l-1.2,5.2l-1.1-0.7l0.3-1.1l-1.5-1.1l-0.9,0.6l-1.1-0.7
		L161.5,27.5L161.5,27.5z"/>
	<polygon points="163.4,34.2 167.1,33.8 165.7,32.2 166.4,31.5 169,34.2 168.4,34.8 164.6,35.2 166.2,37 165.5,37.7 162.8,34.8 	"/>
	<polygon points="170.9,36.8 171.6,37.9 167.5,40.6 166.8,39.6 	"/>
	<path d="M172,43.5c0.1,0.2,0.2,0.4,0.4,0.5c0.1,0.1,0.3,0.1,0.5,0s0.3-0.2,0.4-0.4c0-0.2,0-0.4-0.1-0.6l-0.3-0.7l-1.2,0.5L172,43.5
		L172,43.5z M173.3,40.7l0.9,2c0.2,0.5,0.3,1,0.2,1.4s-0.4,0.7-0.9,1c-0.3,0.2-0.7,0.2-1,0.2s-0.6-0.2-0.8-0.4l-1.2,1.5l-0.5-1.2
		l1.1-1.4l-0.3-0.6l-1.4,0.6l-0.5-1.1C168.8,42.7,173.3,40.7,173.3,40.7z"/>
	<polygon points="176,47.4 176.3,48.7 172.5,49.6 173,51.7 172,51.9 171.2,48.6 	"/>
	<polygon points="177.2,53.7 177.3,54.9 172.3,55.3 172.2,54.1 	"/>
	<path d="M172.6,58.9c0.2-0.4,0.6-0.7,1-0.9s0.9-0.3,1.4-0.2c0.5,0,1,0.2,1.3,0.4c0.4,0.3,0.6,0.6,0.8,1s0.2,0.9,0.2,1.4
		c0,0.4-0.1,0.7-0.2,0.9c-0.1,0.3-0.2,0.5-0.4,0.7l-1.2-0.1c0.2-0.2,0.3-0.4,0.4-0.7s0.2-0.6,0.2-0.9c0-0.3,0-0.6-0.1-0.8
		s-0.2-0.4-0.5-0.6c-0.2-0.1-0.5-0.2-0.7-0.3c-0.4,0-0.8,0.1-1.1,0.3s-0.4,0.6-0.5,1c0,0.2,0,0.5,0.1,0.6l0.8,0.1l0.1-0.8l0.9,0.1
		l-0.2,1.9l-2.5-0.2c-0.3-0.5-0.4-1.2-0.3-1.9C172.2,59.8,172.3,59.3,172.6,58.9L172.6,58.9z"/>
	<polygon points="176.4,65.7 176.1,66.9 171.3,65.7 171.6,64.4 	"/>
	<path d="M125.1,89.3c-0.2-0.5-0.1-1.1,0.1-1.7l1.2-2.6l1.1,0.5l-1.2,2.6c-0.1,0.3-0.2,0.6-0.1,0.8c0.1,0.2,0.3,0.4,0.6,0.5
		c0.3,0.1,0.5,0.2,0.8,0.1c0.2-0.1,0.4-0.3,0.5-0.6l1.2-2.6l1.1,0.5l-1.2,2.6c-0.3,0.6-0.7,1-1.2,1.2s-1.1,0.2-1.8-0.1
		C125.7,90.2,125.3,89.8,125.1,89.3L125.1,89.3z"/>
	<polygon points="131.9,91.5 134.8,89 132.6,88.6 132.8,87.5 136.5,88.3 136.3,89.2 133.5,91.7 135.8,92.2 135.6,93.2 131.7,92.4 	
		"/>
	<polygon points="139.2,88.6 142.7,88.7 142.7,89.7 140.4,89.7 140.4,90.6 142.1,90.6 142,91.6 140.4,91.6 140.4,92.5 142.6,92.6 
		142.6,93.6 139.1,93.6 	"/>
	<path d="M147.8,91.9c0.4-0.1,0.7-0.3,0.9-0.6c0.2-0.3,0.2-0.7,0.1-1.1c-0.1-0.4-0.3-0.7-0.5-0.9c-0.3-0.2-0.6-0.3-1-0.2l-0.6,0.1
		l0.5,2.8L147.8,91.9L147.8,91.9z M145.2,88.5l1.7-0.3c0.5-0.1,1-0.1,1.5,0c0.4,0.1,0.8,0.3,1.1,0.7c0.3,0.3,0.5,0.7,0.6,1.2
		c0.2,0.8,0,1.5-0.4,2s-1,0.8-1.8,1l-1.7,0.3L145.2,88.5z"/>
	<path d="M154.3,90.7c-0.5-0.2-0.9-0.6-1.2-1.2l-1.2-2.6l1.1-0.5l1.2,2.6c0.1,0.3,0.3,0.5,0.5,0.6s0.5,0.1,0.8-0.1
		c0.3-0.1,0.5-0.3,0.6-0.5s0.1-0.5-0.1-0.8l-1.2-2.6l1.1-0.5l1.2,2.6c0.3,0.6,0.3,1.2,0.1,1.7s-0.6,0.9-1.3,1.2
		C155.4,90.8,154.8,90.9,154.3,90.7L154.3,90.7z"/>
</g>
<g>
	<g class="st0">
		<path d="M23.7,119c0-2.5,0.7-4.5,2-5.9c1.4-1.4,3.1-2.1,5.3-2.1c1.4,0,2.7,0.3,3.8,1s2,1.6,2.6,2.8c0.6,1.2,0.9,2.6,0.9,4.1
			s-0.3,2.9-0.9,4.1c-0.6,1.2-1.5,2.1-2.6,2.8c-1.1,0.6-2.4,0.9-3.7,0.9c-1.4,0-2.7-0.3-3.8-1c-1.1-0.7-2-1.6-2.6-2.8
			C24,121.6,23.7,120.3,23.7,119z M25.8,119c0,1.8,0.5,3.3,1.5,4.3s2.2,1.6,3.7,1.6s2.8-0.5,3.7-1.6c1-1.1,1.5-2.6,1.5-4.5
			c0-1.2-0.2-2.3-0.6-3.2c-0.4-0.9-1-1.6-1.8-2.1s-1.7-0.8-2.7-0.8c-1.4,0-2.7,0.5-3.7,1.5C26.3,115.1,25.8,116.7,25.8,119z"/>
	</g>
	<g class="st0">
		<path d="M44.4,126.4v-1.5l7-8.1c-0.8,0-1.5,0.1-2.1,0.1h-4.5v-1.5h9v1.2l-6,7l-1.2,1.3c0.8-0.1,1.6-0.1,2.4-0.1h5.1v1.6H44.4z"/>
		<path d="M57.7,126.4H56v-15.2h1.9v5.4c0.8-1,1.8-1.5,3-1.5c0.7,0,1.3,0.1,1.9,0.4c0.6,0.3,1.1,0.7,1.5,1.2s0.7,1.1,0.9,1.8
			c0.2,0.7,0.3,1.4,0.3,2.2c0,1.9-0.5,3.4-1.4,4.4s-2.1,1.5-3.4,1.5c-1.3,0-2.3-0.5-3.1-1.6L57.7,126.4L57.7,126.4z M57.7,120.8
			c0,1.3,0.2,2.3,0.5,2.9c0.6,1,1.4,1.4,2.4,1.4c0.8,0,1.5-0.4,2.1-1.1s0.9-1.8,0.9-3.2c0-1.4-0.3-2.5-0.9-3.2s-1.3-1-2.1-1
			s-1.5,0.4-2.1,1.1C58,118.4,57.7,119.5,57.7,120.8z"/>
		<path d="M75.4,122.9l1.9,0.2c-0.3,1.1-0.9,2-1.7,2.6s-1.9,0.9-3.2,0.9c-1.6,0-2.9-0.5-3.8-1.5s-1.4-2.4-1.4-4.2
			c0-1.9,0.5-3.3,1.4-4.3c1-1,2.2-1.5,3.7-1.5s2.7,0.5,3.6,1.5s1.4,2.4,1.4,4.2c0,0.1,0,0.3,0,0.5h-8.2c0.1,1.2,0.4,2.1,1,2.8
			c0.6,0.6,1.4,1,2.3,1c0.7,0,1.3-0.2,1.8-0.5S75.1,123.6,75.4,122.9z M69.2,119.8h6.2c-0.1-0.9-0.3-1.6-0.7-2.1
			c-0.6-0.7-1.4-1.1-2.3-1.1s-1.6,0.3-2.2,0.9S69.3,118.9,69.2,119.8z"/>
		<path d="M79.7,126.4v-15.2h1.9v8.7l4.4-4.5h2.4l-4.2,4.1l4.6,6.9h-2.3l-3.6-5.6l-1.3,1.3v4.4h-1.9V126.4z"/>
		<path d="M90.3,113.3v-2.1h1.9v2.1H90.3z M90.3,126.4v-11h1.9v11H90.3z"/>
		<path d="M94.3,123.1l1.8-0.3c0.1,0.7,0.4,1.3,0.9,1.7c0.5,0.4,1.1,0.6,2,0.6s1.5-0.2,1.9-0.5s0.6-0.8,0.6-1.2c0-0.4-0.2-0.8-0.6-1
			c-0.3-0.2-0.9-0.4-1.9-0.6c-1.4-0.3-2.3-0.6-2.9-0.9c-0.5-0.3-0.9-0.6-1.2-1c-0.3-0.4-0.4-0.9-0.4-1.5c0-0.5,0.1-0.9,0.3-1.4
			c0.2-0.4,0.5-0.8,0.9-1c0.3-0.2,0.7-0.4,1.2-0.5s1-0.2,1.6-0.2c0.9,0,1.6,0.1,2.3,0.4s1.1,0.6,1.4,1s0.5,1,0.6,1.7l-1.8,0.2
			c-0.1-0.6-0.3-1-0.7-1.3c-0.4-0.3-1-0.5-1.7-0.5c-0.9,0-1.5,0.1-1.8,0.4c-0.4,0.3-0.6,0.6-0.6,1c0,0.2,0.1,0.5,0.2,0.7
			c0.2,0.2,0.4,0.4,0.7,0.5c0.2,0.1,0.7,0.2,1.7,0.5c1.3,0.4,2.2,0.6,2.8,0.9c0.5,0.2,0.9,0.6,1.2,1c0.3,0.4,0.4,1,0.4,1.6
			s-0.2,1.2-0.5,1.8s-0.9,1-1.6,1.3s-1.5,0.5-2.3,0.5c-1.4,0-2.5-0.3-3.3-0.9C94.9,125.2,94.5,124.3,94.3,123.1z"/>
		<path d="M109.7,124.7l0.3,1.7c-0.5,0.1-1,0.2-1.4,0.2c-0.7,0-1.2-0.1-1.6-0.3c-0.4-0.2-0.6-0.5-0.8-0.8s-0.2-1.1-0.2-2.2V117h-1.4
			v-1.5h1.4v-2.7l1.9-1.1v3.9h1.9v1.5h-1.9v6.4c0,0.5,0,0.9,0.1,1c0.1,0.2,0.2,0.3,0.3,0.4s0.4,0.1,0.6,0.1
			C109.1,124.8,109.4,124.8,109.7,124.7z"/>
		<path d="M110.9,120.9c0-2,0.6-3.6,1.7-4.5c0.9-0.8,2.1-1.2,3.5-1.2c1.5,0,2.8,0.5,3.7,1.5s1.4,2.4,1.4,4.1c0,1.4-0.2,2.5-0.6,3.3
			s-1,1.4-1.9,1.9s-1.7,0.7-2.7,0.7c-1.5,0-2.8-0.5-3.7-1.5C111.3,124.2,110.9,122.8,110.9,120.9z M112.8,120.9
			c0,1.4,0.3,2.5,0.9,3.2s1.4,1.1,2.3,1.1s1.7-0.4,2.3-1.1c0.6-0.7,0.9-1.8,0.9-3.2c0-1.4-0.3-2.4-0.9-3.1s-1.4-1.1-2.3-1.1
			s-1.7,0.3-2.3,1S112.8,119.5,112.8,120.9z"/>
		<path d="M123.4,126.4v-11h1.7v1.6c0.8-1.2,2-1.8,3.5-1.8c0.7,0,1.3,0.1,1.8,0.4c0.6,0.2,1,0.6,1.3,0.9c0.3,0.4,0.5,0.8,0.6,1.4
			c0.1,0.3,0.1,1,0.1,1.8v6.8h-1.9v-6.7c0-0.8-0.1-1.3-0.2-1.7c-0.1-0.4-0.4-0.7-0.8-0.9c-0.4-0.2-0.8-0.3-1.3-0.3
			c-0.8,0-1.5,0.3-2.1,0.8s-0.9,1.5-0.9,2.9v6h-1.8L123.4,126.4L123.4,126.4z"/>
		<path d="M141.4,126.4v-15.2h6.7c1.4,0,2.4,0.1,3.1,0.4c0.7,0.3,1.3,0.8,1.7,1.4s0.6,1.5,0.6,2.3c0,1.1-0.3,2-1,2.7
			s-1.8,1.2-3.2,1.4c0.5,0.3,0.9,0.5,1.2,0.8c0.6,0.5,1.1,1.2,1.7,2l2.6,4.1h-2.5l-2-3.2c-0.6-0.9-1.1-1.6-1.5-2.1s-0.7-0.8-1-1
			s-0.6-0.3-0.9-0.4c-0.2,0-0.6-0.1-1.1-0.1h-2.3v6.8L141.4,126.4L141.4,126.4z M143.4,117.9h4.3c0.9,0,1.6-0.1,2.2-0.3
			c0.5-0.2,0.9-0.5,1.2-0.9s0.4-0.9,0.4-1.4c0-0.7-0.3-1.3-0.8-1.8s-1.3-0.7-2.5-0.7h-4.8L143.4,117.9L143.4,117.9z"/>
		<path d="M164,122.9l1.9,0.2c-0.3,1.1-0.9,2-1.7,2.6s-1.9,0.9-3.2,0.9c-1.6,0-2.9-0.5-3.8-1.5s-1.4-2.4-1.4-4.2
			c0-1.9,0.5-3.3,1.4-4.3c1-1,2.2-1.5,3.7-1.5s2.7,0.5,3.6,1.5c0.9,1,1.4,2.4,1.4,4.2c0,0.1,0,0.3,0,0.5h-8.2c0.1,1.2,0.4,2.1,1,2.8
			c0.6,0.6,1.4,1,2.3,1c0.7,0,1.3-0.2,1.8-0.5S163.7,123.6,164,122.9z M157.9,119.8h6.2c-0.1-0.9-0.3-1.6-0.7-2.1
			c-0.6-0.7-1.4-1.1-2.3-1.1c-0.9,0-1.6,0.3-2.2,0.9S157.9,118.9,157.9,119.8z"/>
		<path d="M167.5,123.1l1.8-0.3c0.1,0.7,0.4,1.3,0.9,1.7c0.5,0.4,1.1,0.6,2,0.6s1.5-0.2,1.9-0.5s0.6-0.8,0.6-1.2
			c0-0.4-0.2-0.8-0.6-1c-0.3-0.2-0.9-0.4-1.9-0.6c-1.4-0.3-2.3-0.6-2.9-0.9c-0.5-0.3-0.9-0.6-1.2-1s-0.4-0.9-0.4-1.5
			c0-0.5,0.1-0.9,0.3-1.4c0.2-0.4,0.5-0.8,0.9-1c0.3-0.2,0.7-0.4,1.2-0.5s1-0.2,1.6-0.2c0.9,0,1.6,0.1,2.3,0.4
			c0.7,0.2,1.1,0.6,1.4,1c0.3,0.4,0.5,1,0.6,1.7l-1.8,0.2c-0.1-0.6-0.3-1-0.7-1.3s-1-0.5-1.7-0.5c-0.9,0-1.5,0.1-1.8,0.4
			s-0.6,0.6-0.6,1c0,0.2,0.1,0.5,0.2,0.7c0.2,0.2,0.4,0.4,0.7,0.5c0.2,0.1,0.7,0.2,1.7,0.5c1.3,0.4,2.2,0.6,2.8,0.9
			c0.5,0.2,0.9,0.6,1.2,1s0.4,1,0.4,1.6s-0.2,1.2-0.5,1.8c-0.4,0.6-0.9,1-1.6,1.3c-0.7,0.3-1.5,0.5-2.3,0.5c-1.4,0-2.5-0.3-3.3-0.9
			C168.2,125.2,167.8,124.3,167.5,123.1z"/>
		<path d="M178.9,130.6v-15.3h1.7v1.4c0.4-0.6,0.9-1,1.4-1.3s1.1-0.4,1.8-0.4c0.9,0,1.8,0.2,2.5,0.7s1.3,1.2,1.6,2.1
			s0.6,1.9,0.6,2.9c0,1.1-0.2,2.1-0.6,3c-0.4,0.9-1,1.6-1.8,2.1s-1.6,0.7-2.4,0.7c-0.6,0-1.2-0.1-1.7-0.4s-0.9-0.6-1.2-1v5.4h-1.9
			L178.9,130.6L178.9,130.6z M180.6,121c0,1.4,0.3,2.5,0.9,3.1c0.6,0.7,1.3,1,2.1,1s1.5-0.4,2.1-1.1s0.9-1.8,0.9-3.3
			c0-1.4-0.3-2.5-0.9-3.2c-0.6-0.7-1.3-1-2.1-1s-1.5,0.4-2.1,1.1C180.9,118.5,180.6,119.5,180.6,121z"/>
		<path d="M198,126.4v-1.6c-0.9,1.2-2,1.9-3.5,1.9c-0.7,0-1.3-0.1-1.8-0.4c-0.6-0.2-1-0.6-1.3-0.9c-0.3-0.4-0.5-0.8-0.6-1.4
			c-0.1-0.4-0.1-0.9-0.1-1.7v-6.8h1.9v6.1c0,1,0,1.6,0.1,2c0.1,0.5,0.4,0.9,0.7,1.2s0.9,0.4,1.4,0.4s1.1-0.1,1.6-0.4s0.8-0.7,1-1.2
			s0.3-1.2,0.3-2.2v-5.9h1.9v11L198,126.4L198,126.4z"/>
		<path d="M204.3,126.4h-1.7v-15.2h1.9v5.4c0.8-1,1.8-1.5,3-1.5c0.7,0,1.3,0.1,1.9,0.4c0.6,0.3,1.1,0.7,1.5,1.2s0.7,1.1,0.9,1.8
			c0.2,0.7,0.3,1.4,0.3,2.2c0,1.9-0.5,3.4-1.4,4.4s-2.1,1.5-3.4,1.5c-1.3,0-2.3-0.5-3.1-1.6v1.4
			C204.2,126.4,204.3,126.4,204.3,126.4z M204.3,120.8c0,1.3,0.2,2.3,0.5,2.9c0.6,1,1.4,1.4,2.4,1.4c0.8,0,1.5-0.4,2.1-1.1
			s0.9-1.8,0.9-3.2c0-1.4-0.3-2.5-0.9-3.2c-0.6-0.7-1.3-1-2.1-1s-1.5,0.4-2.1,1.1C204.6,118.4,204.3,119.5,204.3,120.8z"/>
		<path d="M214.4,126.4v-15.2h1.9v15.2H214.4z"/>
		<path d="M219.1,113.3v-2.1h1.9v2.1H219.1z M219.1,126.4v-11h1.9v11H219.1z"/>
		<path d="M223.9,126.4v-15.2h1.9v8.7l4.4-4.5h2.4l-4.2,4.1l4.6,6.9h-2.3l-3.6-5.6l-1.3,1.3v4.4h-1.9L223.9,126.4L223.9,126.4z"/>
		<path d="M241.7,125c-0.7,0.6-1.4,1-2,1.2s-1.3,0.4-2.1,0.4c-1.2,0-2.1-0.3-2.8-0.9s-1-1.3-1-2.3c0-0.5,0.1-1,0.4-1.5
			c0.2-0.4,0.6-0.8,1-1.1c0.4-0.3,0.8-0.5,1.3-0.6c0.4-0.1,0.9-0.2,1.7-0.3c1.5-0.2,2.6-0.4,3.3-0.6c0-0.3,0-0.4,0-0.5
			c0-0.8-0.2-1.3-0.5-1.6c-0.5-0.4-1.2-0.6-2.1-0.6c-0.9,0-1.5,0.2-1.9,0.5s-0.7,0.9-0.9,1.6l-1.8-0.2c0.2-0.8,0.4-1.4,0.8-1.9
			c0.4-0.5,0.9-0.9,1.7-1.1c0.7-0.3,1.6-0.4,2.5-0.4s1.7,0.1,2.3,0.3c0.6,0.2,1,0.5,1.3,0.8s0.5,0.8,0.6,1.3
			c0.1,0.3,0.1,0.9,0.1,1.7v2.5c0,1.7,0,2.8,0.1,3.3s0.2,0.9,0.5,1.3h-2C241.9,126,241.7,125.6,241.7,125z M241.5,120.9
			c-0.7,0.3-1.7,0.5-3.1,0.7c-0.8,0.1-1.3,0.2-1.6,0.4c-0.3,0.1-0.6,0.3-0.7,0.6c-0.2,0.3-0.3,0.6-0.3,0.9c0,0.5,0.2,0.9,0.6,1.2
			c0.4,0.3,0.9,0.5,1.7,0.5c0.7,0,1.4-0.2,1.9-0.5c0.6-0.3,1-0.7,1.2-1.3c0.2-0.4,0.3-1,0.3-1.9L241.5,120.9L241.5,120.9z"/>
		<path d="M245.6,123.1l1.8-0.3c0.1,0.7,0.4,1.3,0.9,1.7c0.5,0.4,1.1,0.6,2,0.6s1.5-0.2,1.9-0.5s0.6-0.8,0.6-1.2
			c0-0.4-0.2-0.8-0.6-1c-0.3-0.2-0.9-0.4-1.9-0.6c-1.4-0.3-2.3-0.6-2.9-0.9c-0.5-0.3-0.9-0.6-1.2-1s-0.4-0.9-0.4-1.5
			c0-0.5,0.1-0.9,0.3-1.4c0.2-0.4,0.5-0.8,0.9-1c0.3-0.2,0.7-0.4,1.2-0.5s1-0.2,1.6-0.2c0.9,0,1.6,0.1,2.3,0.4
			c0.7,0.2,1.1,0.6,1.4,1c0.3,0.4,0.5,1,0.6,1.7l-1.8,0.2c-0.1-0.6-0.3-1-0.7-1.3s-1-0.5-1.7-0.5c-0.9,0-1.5,0.1-1.8,0.4
			c-0.4,0.3-0.6,0.6-0.6,1c0,0.2,0.1,0.5,0.2,0.7c0.2,0.2,0.4,0.4,0.7,0.5c0.2,0.1,0.7,0.2,1.7,0.5c1.3,0.4,2.2,0.6,2.8,0.9
			c0.5,0.2,0.9,0.6,1.2,1s0.4,1,0.4,1.6s-0.2,1.2-0.5,1.8c-0.4,0.6-0.9,1-1.6,1.3s-1.5,0.5-2.3,0.5c-1.4,0-2.5-0.3-3.3-0.9
			C246.3,125.2,245.8,124.3,245.6,123.1z"/>
		<path d="M257,113.3v-2.1h1.9v2.1H257z M257,126.4v-11h1.9v11H257z"/>
	</g>
	<g class="st0">
		<path d="M42.6,113.7v2.2h-2v-1.7c0-0.9,0.1-1.6,0.3-2c0.3-0.6,0.8-1,1.4-1.3l0.5,0.7c-0.4,0.2-0.7,0.4-0.8,0.7s-0.3,0.8-0.3,1.4
			C41.7,113.7,42.6,113.7,42.6,113.7z"/>
	</g>
	<g class="st0">
		<path d="M121.3,137v-2.2h2v1.7c0,0.9-0.1,1.6-0.3,2c-0.3,0.6-0.8,1-1.4,1.3l-0.5-0.7c0.4-0.2,0.7-0.4,0.8-0.7
			c0.2-0.3,0.3-0.8,0.3-1.4H121.3L121.3,137z"/>
	</g>
	<g class="st0">
		<path d="M167,150.2l-4.2-11h2l2.4,6.6c0.3,0.7,0.5,1.5,0.7,2.2c0.2-0.6,0.4-1.3,0.7-2.1l2.5-6.7h1.9l-4.2,11H167z"/>
	</g>
	<g class="st0">
		<path d="M49.6,150.2l5.9-7.9l-5.2-7.3h2.4l2.8,3.9c0.6,0.8,1,1.4,1.2,1.9c0.3-0.6,0.7-1.1,1.2-1.7l3.1-4h2.2l-5.3,7.2l5.8,8h-2.5
			l-3.8-5.4c-0.2-0.3-0.4-0.7-0.7-1c-0.3,0.6-0.6,0.9-0.7,1.1l-3.8,5.3h-2.6C49.6,150.3,49.6,150.2,49.6,150.2z"/>
		<path d="M72.3,148.8c-0.7,0.6-1.4,1-2,1.2c-0.6,0.2-1.3,0.4-2.1,0.4c-1.2,0-2.1-0.3-2.8-0.9c-0.7-0.6-1-1.3-1-2.3
			c0-0.5,0.1-1,0.4-1.5c0.2-0.4,0.6-0.8,1-1.1c0.4-0.3,0.8-0.5,1.3-0.6c0.4-0.1,0.9-0.2,1.7-0.3c1.5-0.2,2.6-0.4,3.3-0.6
			c0-0.3,0-0.4,0-0.5c0-0.8-0.2-1.3-0.5-1.6c-0.5-0.4-1.2-0.6-2.1-0.6s-1.5,0.2-1.9,0.5c-0.4,0.3-0.7,0.9-0.9,1.6l-1.8-0.2
			c0.2-0.8,0.4-1.4,0.8-1.9s0.9-0.9,1.7-1.1c0.7-0.3,1.6-0.4,2.5-0.4s1.7,0.1,2.3,0.3c0.6,0.2,1,0.5,1.3,0.8
			c0.3,0.3,0.5,0.8,0.6,1.3c0.1,0.3,0.1,0.9,0.1,1.7v2.5c0,1.7,0,2.8,0.1,3.3s0.2,0.9,0.5,1.3h-2C72.5,149.8,72.3,149.3,72.3,148.8z
			 M72.1,144.6c-0.7,0.3-1.7,0.5-3.1,0.7c-0.8,0.1-1.3,0.2-1.6,0.4c-0.3,0.1-0.6,0.3-0.7,0.6c-0.2,0.3-0.3,0.6-0.3,0.9
			c0,0.5,0.2,0.9,0.6,1.2c0.4,0.3,0.9,0.5,1.7,0.5c0.7,0,1.4-0.2,1.9-0.5c0.6-0.3,1-0.7,1.2-1.3c0.2-0.4,0.3-1,0.3-1.9V144.6z"/>
		<path d="M76.9,150.2V135h1.9v15.2H76.9z"/>
		<path d="M88.7,154.4V149c-0.3,0.4-0.7,0.7-1.2,1c-0.5,0.3-1.1,0.4-1.7,0.4c-1.3,0-2.4-0.5-3.4-1.6c-0.9-1-1.4-2.5-1.4-4.3
			c0-1.1,0.2-2.1,0.6-3s0.9-1.5,1.7-2c0.7-0.5,1.5-0.7,2.4-0.7c1.4,0,2.4,0.6,3.2,1.7V139h1.7v15.3h-1.9
			C88.7,154.3,88.7,154.4,88.7,154.4z M82.9,144.6c0,1.4,0.3,2.5,0.9,3.2c0.6,0.7,1.3,1.1,2.1,1.1c0.8,0,1.5-0.3,2.1-1
			c0.6-0.7,0.9-1.7,0.9-3.1c0-1.5-0.3-2.6-0.9-3.3c-0.6-0.7-1.3-1.1-2.1-1.1c-0.8,0-1.5,0.3-2.1,1C83.2,142.1,82.9,143.2,82.9,144.6
			z"/>
		<path d="M103.1,150.2v-13.4h-5V135h12.1v1.8h-5v13.4H103.1z"/>
		<path d="M116.8,148.8c-0.7,0.6-1.4,1-2,1.2c-0.6,0.2-1.3,0.4-2.1,0.4c-1.2,0-2.1-0.3-2.8-0.9c-0.7-0.6-1-1.3-1-2.3
			c0-0.5,0.1-1,0.4-1.5c0.2-0.4,0.6-0.8,1-1.1c0.4-0.3,0.8-0.5,1.3-0.6c0.4-0.1,0.9-0.2,1.7-0.3c1.5-0.2,2.6-0.4,3.3-0.6
			c0-0.3,0-0.4,0-0.5c0-0.8-0.2-1.3-0.5-1.6c-0.5-0.4-1.2-0.6-2.1-0.6s-1.5,0.2-1.9,0.5c-0.4,0.3-0.7,0.9-0.9,1.6l-1.8-0.2
			c0.2-0.8,0.4-1.4,0.8-1.9s0.9-0.9,1.7-1.1c0.7-0.3,1.6-0.4,2.5-0.4s1.7,0.1,2.3,0.3c0.6,0.2,1,0.5,1.3,0.8
			c0.3,0.3,0.5,0.8,0.6,1.3c0.1,0.3,0.1,0.9,0.1,1.7v2.5c0,1.7,0,2.8,0.1,3.3s0.2,0.9,0.5,1.3h-2C117,149.8,116.9,149.3,116.8,148.8
			z M116.7,144.6c-0.7,0.3-1.7,0.5-3.1,0.7c-0.8,0.1-1.3,0.2-1.6,0.4c-0.3,0.1-0.6,0.3-0.7,0.6c-0.2,0.3-0.3,0.6-0.3,0.9
			c0,0.5,0.2,0.9,0.6,1.2c0.4,0.3,0.9,0.5,1.7,0.5c0.7,0,1.4-0.2,1.9-0.5c0.6-0.3,1-0.7,1.2-1.3c0.2-0.4,0.3-1,0.3-1.9V144.6z"/>
	</g>
	<g class="st0">
		<path d="M126.1,150.2V135h1.9v15.2H126.1z"/>
		<path d="M130.9,137.1V135h1.9v2.1H130.9z M130.9,150.2v-11h1.9v11H130.9z"/>
		<path d="M135.6,150.2v-11h1.7v1.5c0.3-0.5,0.8-1,1.4-1.3c0.6-0.3,1.2-0.5,2-0.5s1.5,0.2,2,0.5c0.5,0.3,0.9,0.8,1.1,1.4
			c0.9-1.3,2-1.9,3.4-1.9c1.1,0,1.9,0.3,2.5,0.9s0.9,1.5,0.9,2.8v7.6h-1.9v-6.9c0-0.7-0.1-1.3-0.2-1.6c-0.1-0.3-0.3-0.6-0.7-0.8
			c-0.4-0.2-0.7-0.3-1.1-0.3c-0.8,0-1.4,0.3-1.9,0.8s-0.8,1.3-0.8,2.5v6.4h-1.9v-7.2c0-0.8-0.2-1.5-0.5-1.9s-0.8-0.6-1.5-0.6
			c-0.5,0-1,0.1-1.5,0.4s-0.8,0.7-1,1.2s-0.3,1.3-0.3,2.3v5.7H135.6L135.6,150.2z"/>
		<path d="M153.3,137.1V135h1.9v2.1H153.3z M153.3,150.2v-11h1.9v11H153.3z"/>
	</g>
	<g class="st0">
		<path d="M181.8,148.8c-0.7,0.6-1.4,1-2,1.2c-0.6,0.2-1.3,0.4-2.1,0.4c-1.2,0-2.1-0.3-2.8-0.9c-0.7-0.6-1-1.3-1-2.3
			c0-0.5,0.1-1,0.4-1.5c0.2-0.4,0.6-0.8,1-1.1c0.4-0.3,0.8-0.5,1.3-0.6c0.4-0.1,0.9-0.2,1.7-0.3c1.5-0.2,2.6-0.4,3.3-0.6
			c0-0.3,0-0.4,0-0.5c0-0.8-0.2-1.3-0.5-1.6c-0.5-0.4-1.2-0.6-2.1-0.6c-0.9,0-1.5,0.2-1.9,0.5c-0.4,0.3-0.7,0.9-0.9,1.6l-1.8-0.2
			c0.2-0.8,0.4-1.4,0.8-1.9c0.4-0.5,0.9-0.9,1.7-1.1c0.7-0.3,1.6-0.4,2.5-0.4s1.7,0.1,2.3,0.3c0.6,0.2,1,0.5,1.3,0.8
			c0.3,0.3,0.5,0.8,0.6,1.3c0.1,0.3,0.1,0.9,0.1,1.7v2.5c0,1.7,0,2.8,0.1,3.3s0.2,0.9,0.5,1.3h-2C182,149.8,181.9,149.3,181.8,148.8
			z M181.6,144.6c-0.7,0.3-1.7,0.5-3.1,0.7c-0.8,0.1-1.3,0.2-1.6,0.4c-0.3,0.1-0.6,0.3-0.7,0.6c-0.2,0.3-0.3,0.6-0.3,0.9
			c0,0.5,0.2,0.9,0.6,1.2c0.4,0.3,0.9,0.5,1.7,0.5c0.7,0,1.4-0.2,1.9-0.5c0.6-0.3,1-0.7,1.2-1.3c0.2-0.4,0.3-1,0.3-1.9L181.6,144.6
			L181.6,144.6z"/>
		<path d="M185.4,150.2v-1.5l7-8.1c-0.8,0-1.5,0.1-2.1,0.1h-4.5v-1.5h9v1.2l-6,7l-1.2,1.3c0.8-0.1,1.6-0.1,2.4-0.1h5.1v1.6H185.4z"
			/>
		<path d="M197.1,137.1V135h1.9v2.1H197.1z M197.1,150.2v-11h1.9v11H197.1z"/>
		<path d="M201.8,150.2v-11h1.7v1.7c0.4-0.8,0.8-1.3,1.2-1.5c0.4-0.2,0.8-0.4,1.2-0.4c0.6,0,1.3,0.2,1.9,0.6l-0.6,1.7
			c-0.5-0.3-0.9-0.4-1.4-0.4c-0.4,0-0.8,0.1-1.1,0.4c-0.3,0.2-0.6,0.6-0.7,1c-0.2,0.7-0.3,1.4-0.3,2.2v5.8h-1.9L201.8,150.2
			L201.8,150.2z"/>
		<path d="M208.8,150.2V135h1.9v15.2H208.8z"/>
		<path d="M213.6,137.1V135h1.9v2.1H213.6z M213.6,150.2v-11h1.9v11H213.6z"/>
		<path d="M218,151.1l1.8,0.3c0.1,0.6,0.3,1,0.6,1.2c0.5,0.3,1.1,0.5,1.9,0.5c0.9,0,1.5-0.2,2-0.5c0.5-0.3,0.8-0.8,1-1.5
			c0.1-0.4,0.1-1.2,0.1-2.4c-0.8,1-1.8,1.4-3.1,1.4c-1.5,0-2.7-0.5-3.5-1.6s-1.2-2.4-1.2-3.9c0-1.1,0.2-2,0.6-2.9
			c0.4-0.9,0.9-1.6,1.7-2.1c0.7-0.5,1.6-0.7,2.6-0.7c1.3,0,2.4,0.5,3.2,1.6v-1.3h1.7v9.5c0,1.7-0.2,2.9-0.5,3.6
			c-0.4,0.7-0.9,1.3-1.7,1.7s-1.7,0.6-2.8,0.6c-1.3,0-2.4-0.3-3.2-0.9C218.3,153.2,217.9,152.3,218,151.1z M219.5,144.5
			c0,1.4,0.3,2.5,0.9,3.2c0.6,0.7,1.3,1,2.2,1s1.6-0.3,2.2-1c0.6-0.7,0.9-1.7,0.9-3.1c0-1.3-0.3-2.4-0.9-3.1c-0.6-0.7-1.3-1-2.2-1
			c-0.8,0-1.5,0.3-2.1,1C219.8,142.1,219.5,143.1,219.5,144.5z"/>
		<path d="M230.2,137.1V135h1.9v2.1H230.2z M230.2,150.2v-11h1.9v11H230.2z"/>
	</g>
</g>
</svg>
